# xmcd
#
# Track frame offsets:
#	150
#	15780
#	27282
#	43405
#	57502
#	73212
#	85092
#	98737
#	118952
#	133867
#	147225
#	160927
#	172390
#	186500
#
# Disc length: 2632 seconds
#
# Revision: 1
# Processed by: cddbd v1.4PL0 Copyright (c) Steve Scherf et al.
# Submitted via: audiograbber 1.80.04
#
DISCID=d20a460e
DTITLE=Johnny Hill - Westwärts
DYEAR=1900
DGENRE=
TTITLE0=Westwärts
TTITLE1=Lichter auf den Hügeln
TTITLE2=Sie ist stolz
TTITLE3=Hallo John Wayne
TTITLE4=Teilen kann ich nicht
TTITLE5=Der strohblonde Junge
TTITLE6=Mutter meiner Kinder
TTITLE7=Hallo Teddybär
TTITLE8=Das fremde Gesicht
TTITLE9=Nur allzugern
TTITLE10=Es ist Dein Lächeln
TTITLE11=Der Joker
TTITLE12=Ich danke Dir
TTITLE13=Geheimnis des Lebens
EXTD=
EXTT0=
EXTT1=
EXTT2=
EXTT3=
EXTT4=
EXTT5=
EXTT6=
EXTT7=
EXTT8=
EXTT9=
EXTT10=
EXTT11=
EXTT12=
EXTT13=
PLAYORDER=
